<svg xmlns="http://www.w3.org/2000/svg" aria-hidden="true" viewBox="0 0 16 16"><path fill="currentColor" d="M8 0C3.58 0 0 3.58 0 8c0 3.54 2.29 6.53 5.47 7.59.4.07.55-.17.55-.38 0-.19-.01-.82-.01-1.49-2.01.37-2.53-.49-2.69-.94-.09-.23-.49-.94-.84-1.13-.29-.15-.71-.52-.01-.53.66-.01 1.13.61 1.28.86.75 1.27 1.95.91 2.42.69.07-.54.29-.91.52-1.12-1.81-.2-3.71-.91-3.71-4.04 0-.89.32-1.62.85-2.19-.09-.21-.37-1.04.08-2.17 0 0 .69-.22 2.25.84.65-.18 1.35-.27 2.05-.27s1.4.09 2.05.27c1.56-1.06 2.25-.84 2.25-.84.45 1.13.17 1.96.08 2.17.53.57.85 1.3.85 2.19 0 3.14-1.9 3.84-3.72 4.04.29.25.54.75.54 1.52 0 1.1-.01 1.99-.01 2.26 0 .21.14.46.55.38C13.71 14.53 16 11.54 16 8c0-4.42-3.58-8-8-8"/><path fill="currentColor" d="M4.5 6.5C3.67 6.5 3 7.17 3 8s.67 1.5 1.5 1.5S6 8.83 6 8s-.67-1.5-1.5-1.5m5 0C8.67 6.5 8 7.17 8 8s.67 1.5 1.5 1.5S11 8.83 11 8s-.67-1.5-1.5-1.5"/></svg>