<svg xmlns="http://www.w3.org/2000/svg" fill="none" viewBox="0 0 24 24"><path fill="#000" d="M12 17.75A5.75 5.75 0 1 1 17.75 12 5.76 5.76 0 0 1 12 17.75m0-10A4.25 4.25 0 1 0 16.25 12 4.26 4.26 0 0 0 12 7.75M12 5a.76.76 0 0 1-.75-.75v-1.5a.75.75 0 1 1 1.5 0v1.5A.76.76 0 0 1 12 5m0 17a.76.76 0 0 1-.75-.75v-1.5a.75.75 0 1 1 1.5 0v1.5A.76.76 0 0 1 12 22m9.25-9.25h-1.5a.75.75 0 1 1 0-1.5h1.5a.75.75 0 1 1 0 1.5m-17 0h-1.5a.75.75 0 1 1 0-1.5h1.5a.75.75 0 1 1 0 1.5m2.25-5.5A.74.74 0 0 1 6 7L4.91 6A.77.77 0 0 1 6 4.91L7 6a.75.75 0 0 1-.5 1.25m12.06 12.06a.74.74 0 0 1-.53-.22L17 18a.75.75 0 0 1 1-1l1.09 1a.75.75 0 0 1 0 1.06.74.74 0 0 1-.53.25M17.5 7.25A.75.75 0 0 1 17 6l1-1.09A.77.77 0 1 1 19.09 6L18 7a.74.74 0 0 1-.5.25M5.44 19.31a.74.74 0 0 1-.53-.22.75.75 0 0 1 0-1.06L6 17a.749.749 0 0 1 1 1l-1 1.09a.74.74 0 0 1-.56.22"/></svg>