<svg xmlns="http://www.w3.org/2000/svg" xml:space="preserve" viewBox="0 0 299.049 299.049"><path d="M289.181 206.929c-13.5-12.186-18.511-31.366-12.453-48.699 1.453-4.159-.94-8.686-5.203-9.82-27.77-7.387-41.757-38.568-28.893-64.201 2.254-4.492-.419-9.898-5.348-10.837-26.521-5.069-42.914-32.288-34.734-58.251 1.284-4.074-1.059-8.414-5.178-9.57A149.8 149.8 0 0 0 156.893 0C74.445 0 7.368 67.076 7.368 149.524s67.076 149.524 149.524 149.524c57.835 0 109.142-33.056 133.998-83.129a7.574 7.574 0 0 0-1.709-8.99m-132.288 76.97c-74.095 0-134.374-60.281-134.374-134.374S82.799 15.15 156.893 15.15c9.897 0 19.726 1.078 29.311 3.21-5.123 29.433 11.948 57.781 39.41 67.502-9.727 29.867 5.251 62.735 34.745 74.752-4.104 19.27 1.49 39.104 14.46 53.365-23.061 42.119-67.59 69.92-117.926 69.92"/><path d="M76.388 154.997c-13.068 0-23.7 10.631-23.7 23.701 0 13.067 10.631 23.7 23.7 23.7 13.067 0 23.7-10.631 23.7-23.7-.001-13.07-10.632-23.701-23.7-23.701m0 32.25c-4.715 0-8.55-3.835-8.55-8.55s3.835-8.551 8.55-8.551c4.714 0 8.55 3.836 8.55 8.551s-3.836 8.55-8.55 8.55M173.224 90.655c0-14.9-12.121-27.021-27.02-27.021s-27.021 12.121-27.021 27.021c0 14.898 12.121 27.02 27.021 27.02 14.9-.001 27.02-12.122 27.02-27.02m-38.89 0c0-6.545 5.325-11.871 11.871-11.871s11.87 5.325 11.87 11.871-5.325 11.87-11.87 11.87-11.871-5.326-11.871-11.87M169.638 187.247c-19.634 0-35.609 15.974-35.609 35.61s15.974 35.61 35.609 35.61 35.61-15.974 35.61-35.61c-.001-19.636-15.975-35.61-35.61-35.61m0 56.068c-11.281 0-20.458-9.178-20.458-20.46s9.178-20.46 20.458-20.46c11.281 0 20.46 9.178 20.46 20.46s-9.178 20.46-20.46 20.46"/></svg>