<svg xmlns="http://www.w3.org/2000/svg" fill="none" viewBox="0 0 24 24"><path fill="#000" fill-rule="evenodd" d="M16.22 3.753c-1.328-4.088-7.112-4.088-8.44 0a2.44 2.44 0 0 1-2.32 1.685c-4.299 0-6.086 5.5-2.608 8.028a2.44 2.44 0 0 1 .885 2.725c-1.328 4.088 3.351 7.488 6.83 4.961a2.44 2.44 0 0 1 2.865 0c3.478 2.527 8.157-.873 6.829-4.961a2.44 2.44 0 0 1 .885-2.725c3.478-2.527 1.69-8.028-2.608-8.028a2.44 2.44 0 0 1-2.318-1.685m-6.538.618c.73-2.246 3.907-2.246 4.636 0a4.44 4.44 0 0 0 4.22 3.067c2.362 0 3.344 3.022 1.434 4.41a4.44 4.44 0 0 0-1.612 4.961c.73 2.246-1.841 4.113-3.752 2.725a4.44 4.44 0 0 0-5.216 0c-1.91 1.388-4.481-.48-3.752-2.725a4.44 4.44 0 0 0-1.612-4.962c-1.91-1.387-.928-4.41 1.433-4.41a4.44 4.44 0 0 0 4.22-3.066M10 12a2 2 0 1 1 4 0 2 2 0 0 1-4 0m2-4a4 4 0 1 0 0 8 4 4 0 0 0 0-8" clip-rule="evenodd"/></svg>