<svg xmlns="http://www.w3.org/2000/svg" viewBox="0 0 24 24"><path d="M1.188 21.584A1 1 0 0 0 2 22h20a1 1 0 0 0 .948-1.316l-2-6A1 1 0 0 0 20 14h-2.28l-1.772-5.316A1 1 0 0 0 15 8H9a1 1 0 0 0-.948.684L6.28 14H4a1 1 0 0 0-.948.684l-2 6a1 1 0 0 0 .136.9M12 17.839 11.387 16h1.226ZM19.279 16l1.333 4h-7.224l1.333-4Zm-9.558-6h4.558l1.333 4H8.388Zm-5 6h4.558l1.333 4H3.388ZM12 6a1 1 0 0 1-1-1V3a1 1 0 0 1 2 0v2a1 1 0 0 1-1 1m7.071-1.071a1 1 0 0 1 0 1.414l-1.414 1.414a1 1 0 0 1-1.414-1.414l1.414-1.414a1 1 0 0 1 1.414 0M6.343 7.757 4.929 6.343a1 1 0 0 1 1.414-1.414l1.414 1.414a1 1 0 1 1-1.414 1.414M3 11h2a1 1 0 0 1 0 2H3a1 1 0 0 1 0-2m16 0h2a1 1 0 0 1 0 2h-2a1 1 0 0 1 0-2"/></svg>