<svg xmlns="http://www.w3.org/2000/svg" viewBox="0 0 512 512"><path d="M324.6 312.2c0 42.6-39.9 41.6-44.1 41.6h-81.3v-82.1h81.3c42.7 0 44.1 32.1 44.1 40.5m-50.4-73.5c.7 0 38.6 1 38.6-36.5 0-15.6-3.5-36-38.6-36h-75v72.5zM481 106v300c-.1 41.4-33.6 74.9-75 75H106c-41.4-.1-74.9-33.6-75-75V106c.1-41.4 33.6-74.9 75-75h300c41.4.1 74.9 33.6 75 75M370.6 318.1c0-21.7-6.7-58.6-49.3-67.7v-.7c23-9.8 37.5-28.4 37.5-55.9 0-7 2-65.1-77.9-65.1H153.3v262.5c128.8 0 140.5 1.7 164.3-5.7 14.3-4.4 53-18 53-67.4"/></svg>